<?xml version="1.0" standalone="no"?>
<!DOCTYPE svg PUBLIC "-//W3C//DTD SVG 20010904//EN"
 "http://www.w3.org/TR/2001/REC-SVG-20010904/DTD/svg10.dtd">
<svg version="1.0" xmlns="http://www.w3.org/2000/svg"
 width="100%" height="100%" viewBox="0 0 64 64" preserveAspectRatio="xMidYMid meet">

<g transform="translate(0.000000,64.000000) scale(0.100000,-0.100000)"
fill="#000000" stroke="none">
<path d="M281 581 c-11 -11 -27 -21 -38 -23 -13 -2 -18 -12 -18 -38 l0 -35 95
0 95 0 0 35 c0 26 -5 36 -18 38 -11 2 -27 12 -38 23 -24 24 -54 24 -78 0z"/>
<path d="M120 520 c-19 -19 -20 -33 -20 -230 0 -197 1 -211 20 -230 19 -19 33
-20 200 -20 167 0 181 1 200 20 19 19 20 33 20 230 0 197 -1 211 -20 230 -11
11 -29 20 -40 20 -16 0 -20 -7 -20 -30 0 -56 -27 -70 -140 -70 -113 0 -140 14
-140 70 0 23 -4 30 -20 30 -11 0 -29 -9 -40 -20z m96 -151 c10 -17 -13 -36
-27 -22 -12 12 -4 33 11 33 5 0 12 -5 16 -11z m239 -9 c0 -12 -18 -16 -89 -18
-87 -3 -115 5 -101 27 4 8 38 11 98 9 74 -2 92 -6 92 -18z m-239 -91 c10 -17
-13 -36 -27 -22 -12 12 -4 33 11 33 5 0 12 -5 16 -11z m239 -9 c0 -12 -18 -16
-89 -18 -87 -3 -115 5 -101 27 4 8 38 11 98 9 74 -2 92 -6 92 -18z m-239 -91
c10 -17 -13 -36 -27 -22 -12 12 -4 33 11 33 5 0 12 -5 16 -11z m239 -9 c0 -12
-18 -16 -89 -18 -87 -3 -115 5 -101 27 4 8 38 11 98 9 74 -2 92 -6 92 -18z"/>
</g>
</svg>
