<svg version="1.0" xmlns="http://www.w3.org/2000/svg"
width="512.000000pt" height="512.000000pt" viewBox="0 0 512.000000 512.000000"
preserveAspectRatio="xMidYMid meet">

<g transform="translate(0.000000,512.000000) scale(0.100000,-0.100000)"
fill="currentColor" stroke="none">
<path d="M2443 4785 c-128 -35 -246 -128 -305 -240 l-32 -63 -123 -4 c-132 -3
-152 -10 -197 -72 -20 -26 -21 -41 -21 -246 0 -241 1 -243 69 -294 27 -21 36
-21 726 -21 690 0 699 0 726 21 68 51 69 53 69 294 0 205 -1 220 -21 246 -45
62 -65 69 -197 72 l-123 4 -33 64 c-38 72 -132 167 -202 201 -103 51 -232 66
-336 38z"/>
<path d="M1161 4304 c-169 -45 -301 -180 -346 -351 -23 -86 -23 -3180 0 -3266
45 -173 178 -307 350 -352 52 -13 228 -15 1395 -15 1167 0 1343 2 1395 15 172
45 305 179 350 352 23 86 23 3180 0 3266 -45 173 -178 307 -350 352 -36 9
-102 15 -167 15 l-108 0 0 -188 c0 -136 -4 -204 -15 -247 -45 -172 -179 -305
-352 -350 -85 -22 -1421 -22 -1506 0 -173 45 -307 179 -352 350 -11 43 -15
111 -15 247 l0 188 -112 -1 c-65 0 -136 -6 -167 -15z m502 -1278 c103 -43 128
-177 48 -257 -65 -65 -157 -65 -222 0 -124 123 13 325 174 257z m1943 -12 c53
-39 69 -71 69 -134 0 -63 -16 -95 -69 -134 -27 -21 -39 -21 -704 -24 -457 -2
-689 0 -714 8 -101 29 -140 168 -71 251 51 61 25 59 775 56 676 -2 687 -2 714
-23z m-1943 -788 c103 -43 128 -177 48 -257 -65 -65 -157 -65 -222 0 -124 123
13 325 174 257z m1943 -12 c53 -39 69 -71 69 -134 0 -63 -16 -95 -69 -134 -27
-21 -39 -21 -704 -24 -457 -2 -689 0 -714 8 -101 29 -140 168 -71 251 51 61
25 59 775 56 676 -2 687 -2 714 -23z m-1943 -788 c103 -43 128 -177 48 -257
-65 -65 -157 -65 -222 0 -124 123 13 325 174 257z m1943 -12 c53 -39 69 -71
69 -134 0 -63 -16 -95 -69 -134 -27 -21 -39 -21 -704 -24 -457 -2 -689 0
-714 8 -101 29 -140 168 -71 251 51 61 25 59 775 56 676 -2 687 -2 714 -23z"/>
</g>
</svg>
